HIERARCHY
ROOT root
{
	OFFSET 0.000000 0.000000 0.000000
	CHANNELS 6 Xposition Yposition Zposition Zrotation Yrotation Xrotation
	JOINT lhip
	{
		OFFSET 0.058581 -0.082280 -0.017664
		CHANNELS 3 Zrotation Yrotation Xrotation
		JOINT lknee
		{
			OFFSET 0.043451 -0.386469 0.008037
			CHANNELS 3 Zrotation Yrotation Xrotation
			JOINT lankle
			{
				OFFSET -0.014790 -0.426874 -0.037428
				CHANNELS 3 Zrotation Yrotation Xrotation
				JOINT ltoe
				{
					OFFSET 0.041054 -0.060286 0.122042
					CHANNELS 3 Zrotation Yrotation Xrotation
					End Site
					{
						OFFSET 0.000000 0.000000 0.000000
					}
				}
			}
		}
	}
	JOINT rhip
	{
		OFFSET -0.060310 -0.090513 -0.013543
		CHANNELS 3 Zrotation Yrotation Xrotation
		JOINT rknee
		{
			OFFSET -0.043257 -0.383688 -0.004843
			CHANNELS 3 Zrotation Yrotation Xrotation
			JOINT rankle
			{
				OFFSET 0.019056 -0.420046 -0.034562
				CHANNELS 3 Zrotation Yrotation Xrotation
				JOINT rtoe
				{
					OFFSET -0.034840 -0.062106 0.130323
					CHANNELS 3 Zrotation Yrotation Xrotation
					End Site
					{
						OFFSET 0.000000 0.000000 0.000000
					}
				}
			}
		}
	}
	JOINT lowerback
	{
		OFFSET 0.004439 0.124404 -0.038385
		CHANNELS 3 Zrotation Yrotation Xrotation
		JOINT upperback
		{
			OFFSET 0.004488 0.137956 0.026820
			CHANNELS 3 Zrotation Yrotation Xrotation
			JOINT chest
			{
				OFFSET -0.002265 0.056032 0.002855
				CHANNELS 3 Zrotation Yrotation Xrotation
				JOINT lowerneck
				{
					OFFSET -0.013390 0.211636 -0.033468
					CHANNELS 3 Zrotation Yrotation Xrotation
					JOINT upperneck
					{
						OFFSET 0.010113 0.088937 0.050410
						CHANNELS 3 Zrotation Yrotation Xrotation
						End Site
						{
							OFFSET 0.000000 0.000000 0.000000
						}
					}
				}
				JOINT lclavicle
				{
					OFFSET 0.071702 0.114000 -0.018898
					CHANNELS 3 Zrotation Yrotation Xrotation
					JOINT lshoulder
					{
						OFFSET 0.122921 0.045205 -0.019046
						CHANNELS 3 Zrotation Yrotation Xrotation
						JOINT lelbow
						{
							OFFSET 0.255332 -0.015649 -0.022946
							CHANNELS 3 Zrotation Yrotation Xrotation
							JOINT lwrist
							{
								OFFSET 0.265709 0.012698 -0.007375
								CHANNELS 3 Zrotation Yrotation Xrotation
								End Site
								{
									OFFSET 0.000000 0.000000 0.000000
								}
							}
						}
					}
				}
				JOINT rclavicle
				{
					OFFSET -0.082954 0.112472 -0.023707
					CHANNELS 3 Zrotation Yrotation Xrotation
					JOINT rshoulder
					{
						OFFSET -0.113228 0.046853 -0.008472
						CHANNELS 3 Zrotation Yrotation Xrotation
						JOINT relbow
						{
							OFFSET -0.260127 -0.014369 -0.031269
							CHANNELS 3 Zrotation Yrotation Xrotation
							JOINT rwrist
							{
								OFFSET -0.269108 0.006794 -0.006027
								CHANNELS 3 Zrotation Yrotation Xrotation
								End Site
								{
									OFFSET 0.000000 0.000000 0.000000
								}
							}
						}
					}
				}
			}
		}
	}
}
MOTION
Frames: 15
Frame Time: 0.033333
0.430248 0.131548 1.016004 100.009129 1.476219 87.330243 9.282950 1.955994 2.678026 -3.597332 -11.309402 9.265611 -2.290090 7.926916 -6.807031 0.000000 -0.000000 0.000000 -0.221624 -9.571564 8.484342 0.214763 0.560672 5.187422 5.701178 -15.740579 -12.004645 0.000000 -0.000000 0.000000 -8.560114 9.109167 -6.284963 -9.728602 5.648357 2.508629 -6.584135 6.065220 -2.684507 4.064631 -20.860765 -9.952381 12.249244 -17.146043 -20.980704 -10.321636 -1.027970 -0.427268 -26.690554 -4.680352 12.519869 -13.337770 -62.305664 34.451385 20.339952 -13.537311 -27.201109 -6.193520 12.364420 -5.436060 0.449211 14.382858 -31.684562 -55.576210 16.516271 -65.474804 -22.997302 1.372119 -37.131258 
0.424879 0.128358 1.016828 101.239392 1.668626 88.799682 9.734801 0.839740 1.454425 -4.090784 -12.369614 6.878508 -2.021449 9.735945 -4.979932 0.000000 -0.000000 0.000000 0.175542 -10.550875 8.105515 0.564597 1.446047 2.345802 5.732650 -16.675291 -10.030466 0.000000 -0.000000 0.000000 -8.361336 9.430104 -6.415067 -12.372192 8.786622 1.612933 -6.100022 6.973558 -2.146086 2.231911 -28.402485 -9.004761 15.499315 -14.632843 -22.434790 -9.203669 3.422084 -0.948996 -29.520345 -3.534883 16.230614 -14.182995 -67.283716 34.293688 18.370544 -12.463339 -31.780262 -12.069795 13.148676 -2.845848 2.202142 10.893070 -25.800018 -26.596204 12.117038 -45.359176 3.409330 1.571703 -45.564624 
0.421012 0.124071 1.015221 103.403511 1.846752 90.032656 10.253912 -0.133866 -0.345163 -4.335974 -13.158567 5.719798 -1.820023 10.053217 -3.748718 0.000000 -0.000000 0.000000 1.014716 -10.662264 7.722844 0.640765 0.239395 0.381446 5.281285 -17.239653 -8.699858 0.000000 -0.000000 0.000000 -9.405608 9.185268 -6.714347 -13.470255 10.297600 1.679690 -5.124915 8.388505 -2.428868 1.353987 -31.233303 -6.984978 16.989068 -14.999031 -24.922101 -8.221687 6.688135 1.296220 -32.249743 -0.959359 16.587382 -11.863475 -69.292425 36.438437 18.910868 -10.962102 -35.722712 -14.700021 16.625014 2.664024 6.453483 11.184250 -19.960040 -20.339616 8.304228 -31.537290 1.736621 -0.159153 -57.308966 
0.417479 0.120876 1.012851 106.232310 1.814616 90.205578 10.356725 -0.912954 -1.850305 -4.014658 -13.646600 5.757132 -2.655819 8.643483 -3.766107 0.000000 -0.000000 0.000000 1.484852 -11.381961 8.322247 0.791721 -1.344056 -1.306560 5.185939 -17.700881 -9.068422 0.000000 -0.000000 0.000000 -10.556296 9.955680 -5.123080 -12.932937 11.300483 2.701444 -5.275734 9.874094 -2.800502 2.192136 -30.801895 -8.117056 16.525120 -19.479921 -26.676873 -9.061328 8.738753 0.906593 -31.326010 0.544193 16.293186 -18.641932 -67.887927 40.469961 20.460017 -10.790192 -32.897026 -9.404665 17.310163 2.759795 3.407866 16.608654 -25.004674 -18.727028 8.961043 -40.555600 -19.158542 0.719210 -45.293074 
0.412105 0.120550 1.009102 110.080922 1.995882 90.629689 10.408811 -2.285084 -4.180811 -3.870547 -15.205931 7.037702 -2.801877 8.005913 -4.211772 0.000000 -0.000000 0.000000 2.099240 -12.834859 8.658053 1.076506 -2.608601 -2.547977 4.797779 -18.593735 -9.744138 0.000000 -0.000000 0.000000 -11.115158 12.172031 -3.188489 -12.090367 11.931419 4.289445 -5.200323 10.045031 -2.850774 1.143558 -32.639680 -7.554729 18.040207 -21.007828 -27.940590 -10.141853 8.885032 0.195293 -30.558279 3.660309 16.221505 -21.934584 -67.718659 42.437662 17.889365 -11.940904 -28.880975 -6.829808 17.735273 2.509276 5.997927 14.376479 -24.560202 -21.931903 11.294128 -41.936896 -7.009118 -0.654439 -32.077911 
0.405985 0.121509 1.004249 115.171747 2.681223 91.905438 10.916678 -3.627969 -7.987047 -3.900727 -16.988522 8.733933 -2.494330 7.195554 -4.196549 0.000000 -0.000000 0.000000 3.757759 -13.736811 7.875363 1.391662 -4.370618 -3.620279 4.055458 -20.463158 -9.963775 0.000000 -0.000000 0.000000 -10.080776 13.414286 -1.283204 -12.162920 12.323653 4.067999 -5.100291 9.732124 -1.855825 1.399019 -33.960911 -6.421442 18.133932 -21.483977 -28.173430 -9.953444 10.282909 1.022926 -30.728888 3.888798 16.131437 -23.394688 -66.035896 45.307586 17.793175 -11.570117 -30.473769 -6.528510 17.249323 3.957873 6.840637 13.989166 -24.045209 -19.525318 8.031574 -42.530087 -11.501311 0.084870 -35.917024 
0.400066 0.122972 1.001482 120.080836 3.068668 93.170666 11.107471 -4.790734 -11.259968 -3.696361 -18.837765 9.462899 -2.813154 6.213743 -3.438294 0.000000 -0.000000 0.000000 5.015399 -14.484938 6.505042 1.777470 -6.218432 -3.849243 3.715652 -21.963320 -10.064705 0.000000 -0.000000 0.000000 -9.291088 14.195177 0.471943 -11.634178 12.261830 4.285308 -4.992750 10.052797 -1.433178 0.434220 -34.639394 -5.239939 18.919321 -22.983132 -28.138176 -10.692743 10.738318 1.064522 -30.214385 4.633217 16.244425 -22.835562 -64.123893 44.950910 17.916907 -12.100092 -28.187326 -5.528013 16.343970 3.746499 7.723815 12.731724 -23.204114 -19.355310 6.598666 -42.244944 -11.065951 0.097766 -34.292007 
0.395540 0.123886 1.000464 123.689693 2.997288 93.976140 10.820343 -5.307177 -13.232235 -3.348316 -20.715391 9.404314 -3.425524 5.168857 -2.403972 0.000000 -0.000000 0.000000 5.518817 -15.018465 5.200436 2.025872 -7.702960 -3.273796 3.415460 -22.936940 -10.267553 0.000000 -0.000000 0.000000 -9.238295 14.960926 2.142897 -11.085902 12.592319 4.276249 -4.602618 10.198021 -1.086872 0.073360 -34.471298 -4.354119 19.222578 -24.189259 -28.045043 -10.498048 11.892522 0.967984 -30.651045 5.180896 15.847321 -23.072158 -62.416773 46.218028 19.187023 -10.988316 -26.038336 -4.578469 15.268280 3.566187 8.764021 12.337774 -24.048167 -20.280899 6.354006 -43.151138 -11.689841 -0.051892 -34.123391 
0.390398 0.124194 0.999447 126.783719 2.869721 94.772342 10.662630 -6.105382 -14.806158 -3.097425 -21.909122 8.744825 -3.905687 4.443714 -1.226106 0.000000 -0.000000 0.000000 5.965247 -15.016743 3.843062 2.226206 -9.248403 -2.766241 2.983303 -23.945838 -10.487232 0.000000 -0.000000 0.000000 -8.921215 15.458855 3.623465 -10.731854 12.808019 4.223657 -4.223177 10.201718 -0.953943 -0.230999 -34.372387 -3.128999 19.448863 -24.962267 -28.160288 -10.046290 12.955692 1.336105 -31.264775 5.923858 15.831292 -23.298173 -61.379024 47.062229 17.640349 -12.108861 -27.048013 -4.498766 14.672138 3.909442 9.851474 12.118251 -23.787266 -20.773010 5.768019 -43.487199 -11.901466 -0.516852 -34.354518 
0.385547 0.124141 0.997886 129.722640 2.730641 95.505236 10.478589 -6.621245 -16.276983 -2.912568 -23.094103 8.142107 -4.351442 3.703907 -0.280946 0.000000 -0.000000 0.000000 6.384338 -15.330254 2.673366 2.447131 -10.337455 -2.541254 2.377637 -24.913317 -10.767866 0.000000 -0.000000 0.000000 -8.495374 15.649374 4.844695 -10.311144 12.763219 4.134465 -3.832577 10.282495 -0.593317 -0.540091 -34.568309 -2.186122 19.810933 -25.625812 -27.955874 -9.601338 13.694118 1.669402 -31.986526 6.488183 15.728853 -23.846422 -59.986619 48.211089 17.412489 -12.133653 -27.327811 -4.434854 14.262526 4.152027 10.221568 11.668555 -23.669934 -20.604184 5.726107 -43.015620 -12.210394 -0.614142 -34.623227 
0.380948 0.123867 0.996035 132.121391 2.656031 96.239339 10.393084 -6.928832 -17.638828 -2.676960 -24.287171 7.540785 -4.761413 2.919115 0.666525 0.000000 -0.000000 0.000000 6.831848 -15.458155 1.489380 2.603393 -11.271634 -2.323646 1.762991 -25.601758 -10.947346 0.000000 -0.000000 0.000000 -8.001463 15.749780 5.863453 -9.966877 12.637405 4.025898 -3.571699 10.275297 -0.402816 -0.358598 -34.710439 -1.415196 20.205774 -26.092442 -27.857886 -9.215955 14.227480 1.936891 -32.651421 7.097821 15.760987 -24.419669 -58.324513 49.468966 16.906782 -12.446064 -26.987835 -4.637155 13.917997 4.193784 10.878643 11.836756 -23.906976 -20.871611 5.738290 -43.125255 -12.385285 -0.733425 -34.819521 
0.376517 0.122950 0.994582 134.139450 2.542822 96.944286 10.337126 -6.981251 -19.031040 -2.726204 -25.221791 7.154507 -5.315317 2.132644 1.717111 0.000000 -0.000000 0.000000 7.098554 -15.552632 0.340639 2.853788 -12.076880 -2.100006 1.334714 -26.058552 -11.054368 0.000000 -0.000000 0.000000 -7.719404 15.738517 6.753595 -9.698323 12.440852 3.914785 -3.236181 10.340817 -0.317367 -0.090757 -34.894781 -0.618473 20.881535 -26.183163 -28.035293 -9.153043 14.471538 2.057828 -33.318044 7.459302 15.919287 -24.618303 -56.352615 50.056004 16.404593 -12.618877 -26.746589 -4.887279 13.715036 4.238617 11.326886 11.929222 -24.038864 -20.942827 5.800926 -42.726200 -12.200313 -0.826984 -35.475165 
0.372878 0.121525 0.993678 135.784575 2.511504 97.484674 10.243983 -7.243805 -20.133957 -2.516411 -25.733241 6.863582 -5.728471 1.676894 2.723896 0.000000 -0.000000 0.000000 7.422585 -15.655020 -0.453233 3.014157 -12.725096 -2.172681 1.095218 -26.396365 -10.932830 0.000000 -0.000000 0.000000 -7.385468 15.779847 7.600122 -9.444912 12.245119 3.948462 -3.011961 10.416496 -0.265414 0.306916 -35.056526 -0.187298 21.446284 -26.173055 -28.094177 -9.424276 14.329254 1.942786 -33.902437 7.520051 16.265579 -24.370372 -54.072473 49.596604 15.994478 -12.638412 -26.332826 -4.883388 13.711793 4.202124 11.482556 11.838108 -23.970979 -21.043508 5.907548 -42.614807 -12.178379 -0.821949 -35.370651 
0.369615 0.119846 0.992931 137.083064 2.620184 97.859546 10.178419 -7.276721 -21.057151 -2.345452 -26.248012 6.812704 -5.925865 1.208098 3.629782 0.000000 -0.000000 0.000000 7.820247 -15.672704 -1.045752 3.145026 -13.359042 -2.245610 0.856573 -26.616502 -10.830907 0.000000 -0.000000 0.000000 -6.911987 15.800950 8.513997 -9.282969 12.099304 3.962208 -2.798262 10.388905 -0.262673 0.703973 -35.208054 0.021787 21.881672 -26.041265 -27.891990 -9.746948 14.033120 1.916815 -35.006523 7.652297 16.173460 -23.376087 -51.745480 48.721731 15.702075 -12.931794 -25.431089 -5.025469 13.907058 4.235248 11.691530 11.822151 -24.173829 -21.195207 6.030669 -42.358315 -12.050670 -0.765915 -35.579099 
0.366974 0.117670 0.991872 137.955791 2.801404 98.276511 10.312594 -7.205136 -21.969869 -2.289983 -26.451843 6.810748 -6.145470 0.834275 4.211569 0.000000 -0.000000 0.000000 8.292234 -15.600593 -1.680432 3.239551 -13.857963 -2.316834 0.563026 -26.762538 -10.677446 0.000000 -0.000000 0.000000 -6.678243 15.854278 9.332487 -9.195320 12.003383 3.731220 -2.426693 10.346542 -0.285245 1.092376 -35.518063 0.129069 22.225215 -25.658994 -27.682959 -10.206908 13.736866 1.887982 -36.449768 7.998467 16.005344 -21.350877 -50.022531 47.155861 15.228994 -13.152485 -24.233733 -5.204704 14.156766 4.362604 11.849698 11.648191 -24.155233 -21.054811 6.531198 -41.841911 -11.969491 -0.725898 -36.382460 
